<?xml version="1.0" standalone="no"?>
<!DOCTYPE svg PUBLIC "-//W3C//DTD SVG 20010904//EN"
 "http://www.w3.org/TR/2001/REC-SVG-20010904/DTD/svg10.dtd">
<svg version="1.0" xmlns="http://www.w3.org/2000/svg"
 width="100.000000pt" height="100.000000pt" viewBox="0 0 570.000000 570.000000"
 preserveAspectRatio="xMidYMid meet">

<g transform="translate(0.000000,570.000000) scale(0.100000,-0.100000)"
fill="#000000" stroke="none">
<path d="M1680 4024 c-193 -51 -327 -178 -376 -357 -21 -77 -19 -220 6 -298
35 -112 131 -208 211 -209 14 0 28 -2 31 -5 3 -3 -5 -32 -19 -65 -29 -73 -79
-262 -88 -334 -9 -73 -12 -76 -65 -66 -163 32 -325 -12 -415 -112 -55 -62 -81
-115 -102 -210 l-16 -78 -240 -2 c-211 -3 -241 -5 -250 -20 -8 -12 -7 -21 2
-32 12 -14 46 -16 251 -16 l238 0 7 -37 c16 -89 54 -124 159 -147 44 -10 93
-29 122 -49 47 -31 54 -32 154 -34 58 0 132 -4 166 -8 76 -9 118 4 180 55 26
21 61 41 78 44 71 14 136 80 136 139 0 15 6 30 14 33 7 3 764 6 1682 7 l1669
2 3 24 c2 13 -2 28 -10 32 -7 5 -74 9 -149 9 l-137 0 2 168 c1 155 -1 171 -22
217 -37 81 -96 130 -177 149 -16 4 -54 24 -84 44 l-55 37 -120 3 c-67 1 -146
4 -177 5 -48 2 -63 -3 -108 -30 -35 -22 -53 -29 -56 -20 -2 6 -15 53 -29 103
-14 50 -34 112 -45 137 -22 50 -19 57 18 57 39 0 124 53 154 97 51 75 70 132
75 233 10 220 -94 405 -278 493 -99 46 -169 61 -271 55 -95 -5 -162 -33 -216
-90 -31 -32 -83 -130 -83 -157 0 -15 2 -15 -121 28 -176 63 -259 75 -524 75
-213 1 -252 -2 -350 -22 -92 -19 -223 -58 -297 -87 -13 -5 -19 1 -27 30 -25
92 -105 181 -189 209 -57 20 -188 20 -262 0z m1338 -205 c528 -57 877 -367
1026 -910 l25 -89 -33 -14 c-41 -17 -82 -66 -96 -114 -19 -71 -10 -294 16
-384 5 -17 -50 -18 -1049 -18 l-1054 0 -18 63 c-28 94 -49 129 -110 185 -50
46 -183 122 -214 122 -17 0 -13 42 15 168 131 584 490 929 1029 990 114 13
349 14 463 1z m1314 -1076 c36 -32 12 -113 -34 -113 -26 0 -58 36 -58 65 0 29
32 65 57 65 9 0 25 -7 35 -17z m223 -3 c38 -42 4 -120 -47 -107 -24 6 -48 43
-48 72 0 21 36 55 58 55 11 0 27 -9 37 -20z m-417 -116 c26 -18 30 -74 6 -98
-22 -23 -60 -20 -78 6 -23 33 -19 64 10 87 32 25 33 25 62 5z m607 -9 c29 -28
31 -51 9 -83 -18 -26 -65 -30 -84 -6 -21 25 -16 75 9 96 30 24 37 23 66 -7z
m-245 -95 c53 -15 127 -65 150 -102 24 -40 26 -85 3 -110 -15 -16 -35 -18
-221 -18 -227 0 -242 4 -242 63 0 108 178 204 310 167z"/>
<path d="M2192 3188 c-150 -22 -306 -154 -356 -301 -19 -55 -20 -177 -3 -224
42 -112 137 -177 261 -176 180 1 332 96 387 242 17 47 20 72 17 151 -5 110
-24 164 -84 229 -63 71 -126 93 -222 79z m219 -249 c51 -51 -41 -164 -100
-123 -32 23 -28 78 8 115 35 34 63 37 92 8z"/>
<path d="M3347 3176 c-137 -51 -222 -221 -195 -390 12 -81 47 -144 112 -204
71 -64 144 -93 252 -100 137 -8 221 34 279 139 27 49 30 62 30 149 0 88 -3
101 -34 165 -84 170 -308 292 -444 241z m-13 -251 c47 -51 35 -125 -20 -125
-57 0 -109 101 -72 138 21 21 67 14 92 -13z"/>
<path d="M2791 2801 c-58 -16 -52 -69 11 -85 62 -16 127 38 86 71 -18 15 -69
22 -97 14z"/>
<path d="M2933 2490 c-63 -56 -168 -63 -233 -15 -39 29 -71 24 -43 -8 66 -73
216 -75 299 -3 30 26 34 34 23 43 -11 9 -21 5 -46 -17z"/>
</g>
</svg>
