<?xml version="1.0" standalone="no"?>
<!DOCTYPE svg PUBLIC "-//W3C//DTD SVG 20010904//EN"
 "http://www.w3.org/TR/2001/REC-SVG-20010904/DTD/svg10.dtd">
<svg version="1.0" xmlns="http://www.w3.org/2000/svg"
 width="100.000000pt" height="100.000000pt" viewBox="0 0 630.000000 630.000000"
 preserveAspectRatio="xMidYMid meet">

<g transform="translate(0.000000,630.000000) scale(0.100000,-0.100000)"
fill="#000000" stroke="none">
<path d="M1201 5009 c-278 -54 -497 -252 -581 -524 -59 -194 -24 -437 87 -605
80 -120 224 -242 339 -286 41 -15 45 -20 41 -43 -49 -266 -49 -272 -44 -466 4
-132 11 -216 24 -277 18 -85 18 -87 0 -140 -24 -66 -34 -261 -18 -338 99 -463
690 -859 1476 -989 246 -41 307 -46 625 -46 338 0 450 10 710 62 736 146 1271
510 1381 940 27 106 25 253 -4 353 -22 75 -22 75 -4 160 24 112 34 396 18 522
-7 52 -21 127 -31 168 -11 41 -18 75 -17 75 1 1 23 9 49 19 121 45 277 179
350 301 166 276 133 640 -79 875 -251 277 -655 329 -962 126 -70 -47 -175
-150 -207 -205 -22 -37 -27 -38 -84 -5 -126 73 -366 165 -539 208 -403 100
-856 92 -1253 -23 -122 -35 -242 -82 -376 -148 -73 -36 -134 -64 -136 -62 -1
2 -16 24 -33 49 -66 98 -198 202 -319 253 -119 50 -293 70 -413 46z m2267
-165 c122 -16 333 -67 452 -109 99 -36 297 -131 385 -185 444 -273 745 -694
831 -1160 28 -148 24 -420 -8 -570 -25 -114 -25 -115 -7 -166 59 -168 45 -330
-43 -494 -208 -389 -793 -674 -1547 -756 -194 -21 -579 -21 -766 0 -666 75
-1200 305 -1458 626 -157 197 -203 408 -133 612 21 61 24 80 16 108 -46 158
-58 453 -27 625 99 546 456 997 1002 1265 399 196 837 264 1303 204z"/>
<path d="M2005 3375 c-172 -32 -297 -98 -421 -220 -123 -123 -182 -238 -205
-400 -19 -136 26 -271 121 -365 87 -88 198 -130 341 -130 362 0 733 295 766
609 14 137 -44 297 -140 388 -120 113 -275 153 -462 118z m229 -190 c69 -18
132 -59 171 -112 l28 -38 -39 37 c-114 108 -273 108 -384 0 -52 -51 -54 -55
-33 -62 29 -12 45 -44 37 -75 -7 -29 -31 -45 -67 -45 -22 0 -23 -2 -17 -47 10
-68 24 -97 70 -147 57 -62 119 -89 200 -88 77 0 125 18 182 70 l42 37 -23 -32
c-53 -77 -180 -131 -279 -119 -107 13 -201 78 -254 178 -19 36 -23 58 -23 138
0 80 4 102 24 140 37 71 113 137 185 159 75 24 106 25 180 6z"/>
<path d="M4053 3376 c-89 -21 -176 -70 -234 -134 -76 -84 -111 -163 -124 -286
-31 -284 262 -607 617 -680 203 -42 373 -3 489 113 146 146 165 359 52 586
-69 141 -191 256 -348 330 -155 73 -324 100 -452 71z m231 -211 c64 -30 119
-88 152 -159 37 -78 34 -183 -6 -264 -87 -173 -284 -230 -450 -129 -29 18 -65
48 -79 67 l-25 35 34 -32 c80 -73 208 -97 301 -56 84 38 149 125 164 221 7 41
6 42 -22 42 -34 0 -46 8 -62 37 -14 28 2 73 29 80 11 3 20 9 20 13 0 20 -111
107 -151 119 -96 30 -207 5 -278 -62 -31 -30 -33 -30 -17 -5 31 48 111 100
183 118 58 14 147 3 207 -25z"/>
<path d="M3075 2516 c-47 -18 -85 -58 -85 -91 0 -33 44 -81 86 -95 52 -17 148
-8 182 17 45 33 58 65 43 102 -27 64 -141 98 -226 67z"/>
<path d="M3117 2205 c-32 -29 -65 -32 -108 -9 -29 15 -30 15 -20 -4 21 -40
104 -47 145 -13 9 7 25 4 54 -10 35 -17 47 -19 74 -10 18 6 39 20 45 30 12 19
11 19 -22 5 -48 -20 -69 -18 -103 11 -17 14 -31 25 -33 25 -2 0 -17 -12 -32
-25z"/>
</g>
</svg>
